<?xml version="1.0" encoding="UTF-8"?>
<svg width="50px" height="50px" viewBox="0 0 50 50" version="1.1" xmlns="http://www.w3.org/2000/svg" xmlns:xlink="http://www.w3.org/1999/xlink">
    <!-- Generator: Sketch 49.2 (51160) - http://www.bohemiancoding.com/sketch -->
    <title>linkedin-button</title>
    <desc>Created with Sketch.</desc>
    <defs></defs>
    <g id="Page-1" stroke="none" stroke-width="1" fill="none" fill-rule="evenodd">
        <g id="linkedin-button" fill="#FFFFFF" fill-rule="nonzero">
            <path d="M24.9687885,0 C11.1797741,0 0,11.1797741 0,24.9687885 C0,38.7578029 11.1797741,49.937577 24.9687885,49.937577 C38.7578029,49.937577 49.937577,38.7578029 49.937577,24.9687885 C49.937577,11.176694 38.7578029,0 24.9687885,0 Z M18.7265914,37.063039 L12.4843943,37.063039 L12.4843943,15.2152977 L18.7265914,15.2152977 L18.7265914,37.063039 Z M15.7989733,13.876386 C14.1822382,13.876386 12.874538,12.5655031 12.874538,10.948768 C12.874538,9.33203285 14.1854209,8.0211499 15.7989733,8.0211499 C17.4157084,8.02422998 18.7265914,9.33511294 18.7265914,10.948768 C18.7265914,12.5655031 17.4157084,13.876386 15.7989733,13.876386 Z M40.57423,37.063039 L34.3320329,37.063039 L34.3320329,23.5549281 C34.3320329,21.9724846 33.8794661,20.8645791 31.9350103,20.8645791 C28.710883,20.8645791 28.0898357,23.5549281 28.0898357,23.5549281 L28.0898357,37.063039 L21.8476386,37.063039 L21.8476386,15.2152977 L28.0898357,15.2152977 L28.0898357,17.3032854 C28.9824435,16.6198152 31.210883,15.2183778 34.3320329,15.2183778 C36.3545175,15.2183778 40.57423,16.4293634 40.57423,23.7451745 L40.57423,37.063039 Z" id="Shape"></path>
        </g>
    </g>
</svg>