<?xml version="1.0" encoding="UTF-8"?>
<svg width="1403px" height="213px" viewBox="0 0 1403 213" version="1.1" xmlns="http://www.w3.org/2000/svg" xmlns:xlink="http://www.w3.org/1999/xlink">
    <!-- Generator: Sketch 49.2 (51160) - http://www.bohemiancoding.com/sketch -->
    <title>zigzag</title>
    <desc>Created with Sketch.</desc>
    <defs></defs>
    <g id="Welcome" stroke="none" stroke-width="1" fill="none" fill-rule="evenodd">
        <g id="zigzag" fill="#222222">
            <rect id="Rectangle-2" transform="translate(140.710678, 70.710678) rotate(45.000000) translate(-140.710678, -70.710678) " x="90.7106781" y="20.7106781" width="100" height="100"></rect>
            <rect id="Rectangle-2-Copy-18" transform="translate(70.710678, 140.710678) rotate(45.000000) translate(-70.710678, -140.710678) " x="20.7106781" y="90.7106781" width="100" height="100"></rect>
            <rect id="Rectangle-2-Copy-8" transform="translate(210.710678, 141.421356) rotate(45.000000) translate(-210.710678, -141.421356) " x="160.710678" y="91.4213562" width="100" height="100"></rect>
            <rect id="Rectangle-2-Copy-4" transform="translate(700.710678, 70.710678) rotate(45.000000) translate(-700.710678, -70.710678) " x="650.710678" y="20.7106781" width="100" height="100"></rect>
            <rect id="Rectangle-2-Copy-9" transform="translate(770.710678, 141.421356) rotate(45.000000) translate(-770.710678, -141.421356) " x="720.710678" y="91.4213562" width="100" height="100"></rect>
            <rect id="Rectangle-2-Copy-2" transform="translate(420.710678, 70.710678) rotate(45.000000) translate(-420.710678, -70.710678) " x="370.710678" y="20.7106781" width="100" height="100"></rect>
            <rect id="Rectangle-2-Copy-10" transform="translate(490.710678, 141.421356) rotate(45.000000) translate(-490.710678, -141.421356) " x="440.710678" y="91.4213562" width="100" height="100"></rect>
            <rect id="Rectangle-2-Copy-5" transform="translate(980.710678, 70.710678) rotate(45.000000) translate(-980.710678, -70.710678) " x="930.710678" y="20.7106781" width="100" height="100"></rect>
            <rect id="Rectangle-2-Copy-11" transform="translate(1050.710678, 141.421356) rotate(45.000000) translate(-1050.710678, -141.421356) " x="1000.71068" y="91.4213562" width="100" height="100"></rect>
            <rect id="Rectangle-2-Copy" transform="translate(280.710678, 70.710678) rotate(45.000000) translate(-280.710678, -70.710678) " x="230.710678" y="20.7106781" width="100" height="100"></rect>
            <rect id="Rectangle-2-Copy-12" transform="translate(350.710678, 141.421356) rotate(45.000000) translate(-350.710678, -141.421356) " x="300.710678" y="91.4213562" width="100" height="100"></rect>
            <rect id="Rectangle-2-Copy-6" transform="translate(840.710678, 70.710678) rotate(45.000000) translate(-840.710678, -70.710678) " x="790.710678" y="20.7106781" width="100" height="100"></rect>
            <rect id="Rectangle-2-Copy-13" transform="translate(910.710678, 141.421356) rotate(45.000000) translate(-910.710678, -141.421356) " x="860.710678" y="91.4213562" width="100" height="100"></rect>
            <rect id="Rectangle-2-Copy-3" transform="translate(560.710678, 70.710678) rotate(45.000000) translate(-560.710678, -70.710678) " x="510.710678" y="20.7106781" width="100" height="100"></rect>
            <rect id="Rectangle-2-Copy-14" transform="translate(630.710678, 141.421356) rotate(45.000000) translate(-630.710678, -141.421356) " x="580.710678" y="91.4213562" width="100" height="100"></rect>
            <rect id="Rectangle-2-Copy-7" transform="translate(1120.710678, 70.710678) rotate(45.000000) translate(-1120.710678, -70.710678) " x="1070.71068" y="20.7106781" width="100" height="100"></rect>
            <rect id="Rectangle-2-Copy-15" transform="translate(1190.710678, 141.710678) rotate(45.000000) translate(-1190.710678, -141.710678) " x="1140.71068" y="91.7106781" width="100" height="100"></rect>
            <rect id="Rectangle-2-Copy-16" transform="translate(1261.710678, 71.710678) rotate(45.000000) translate(-1261.710678, -71.710678) " x="1211.71068" y="21.7106781" width="100" height="100"></rect>
            <rect id="Rectangle-2-Copy-17" transform="translate(1331.710678, 141.710678) rotate(45.000000) translate(-1331.710678, -141.710678) " x="1281.71068" y="91.7106781" width="100" height="100"></rect>
        </g>
    </g>
</svg>